PathFileType	4	(X/Y/Z)	C:/Users/beibeiliu/ov580/test_trc/User1\sequence.5_training_dense_right.trc
DataRate	CameraRate	NumFrames	NumMarkers	Units	OrigDataRate	OrigDataStartFrame	OrigNumFrames
120	120	16	19	mm	120	236	269
Frame#	Time	ThumbCMC			ThumbMCP			ThumbIP			ThumbTip			IndexMCP			IndexPIP			IndexTip			MiddleMCP			MiddlePIP			MiddleTip			RingMCP			RingPIP			RingTip			PinkyMCP			PinkyPIP			PinkyTip			BackHand1			BackHand2			BackHand3	
		X0	Y0	Z0	X1	Y1	Z1	X2	Y2	Z2	X3	Y3	Z3	X4	Y4	Z4	X5	Y5	Z5	X6	Y6	Z6	X7	Y7	Z7	X8	Y8	Z8	X9	Y9	Z9	X10	Y10	Z10	X11	Y11	Z11	X12	Y12	Z12	X13	Y13	Z13	X14	Y14	Z14	X15	Y15	Z15	X16	Y16	Z16	X17	Y17	Z17	X18	Y18	Z18	
235	1.95833	113.305	17.86	37.1478	108.51	-1.24208	5.77371	109.619	-3.42367	-26.5535	122.047	-8.27052	-50.0626	105.306	58.0247	-33.9673	99.8864	62.6362	-60.16	104.395	65.7491	-83.5315	136.813	40.8259	-45.8126	139.732	4.18846	-48.9455	142.076	-3.10343	-13.3719	162.207	30.3837	-35.6464	161.973	-3.64605	-30.8117	156.443	-5.85401	2.9168	180.825	29.7171	-25.5874	172.43	-0.0970345	-15.7437	161.564	8.85707	9.75482	161.625	62.3321	18.2731	167.064	57.0771	51.7819	131.151	56.9112	36.5189	
236	1.96667	111.725	16.312	39.0007	107.307	-5.86055	9.92096	111.269	-8.10472	-22.5383	124.89	-12.9907	-46.8403	107.702	51.3075	-36.1639	99.3363	51.1077	-60.8777	97.3284	53.8966	-88.53	137.356	32.2063	-45.7315	138.099	-2.37367	-48.1927	143.095	-6.9811	-6.33597	162.36	19.667	-36.843	161.31	-11.2518	-27.7404	154.677	-10.6876	4.75686	179.362	19.5515	-27.4221	169.289	-3.2845	-15.4532	158.196	9.03602	13.2759	166.818	57.8236	13.9938	167.401	53.9872	52.5779	131.563	54.0271	33.4796	
237	1.975	109.629	15.6688	39.9259	103.738	-9.79805	10.6337	108.905	-15.2038	-18.3309	123.997	-22.4786	-40.7099	107.25	43.137	-37.0918	103.537	40.1846	-61.4457	100.012	41.8	-91.8072	137.395	20.9442	-47.4952	139.75	-13.7864	-41.5046	141.449	-12.8255	-1.62181	160.545	9.86857	-36.4195	157.066	-17.9576	-23.522	155.571	-15.3345	9.79517	180.118	12.5722	-24.8438	170.925	-12.7878	-9.81578	159.169	4.01992	14.5722	161.918	55.7773	11.4252	164.824	55.5958	48.2373	130.46	54.0739	33.9488	
238	1.98333	110.738	14.8726	44.3418	105.674	-11.4087	14.4018	106.483	-23.7735	-14.0105	122.609	-33.34	-35.1406	107.972	34.1009	-39.8848	98.7206	28.1661	-60.878	98.3426	25.8005	-88.7069	137.762	12.6556	-44.9908	141.556	-23.0451	-34.2397	141.122	-19.1413	0.878407	159.86	3.35376	-33.6461	158.467	-25.7631	-17.7032	153.647	-16.1279	18.1686	182.081	3.84632	-21.8734	168.887	-16.9837	-8.31688	155.874	-1.48997	18.7595	162.284	51.5766	11.4051	168.854	52.8711	47.4019	129.488	51.9784	30.0263	
239	1.99167	107.445	12.2204	41.0056	105.331	-14.7863	18.7493	108.29	-30.0804	-7.67096	126.976	-39.9472	-31.6675	103.532	24.3607	-38.2316	100.472	16.5233	-61.2474	98.0076	11.0332	-88.1354	138.547	3.65157	-42.4772	142.788	-29.6657	-32.6164	137.905	-22.8627	7.20014	161.692	-6.77659	-30.4956	158.142	-32.2806	-9.2529	153.716	-20.3294	23.1885	182.726	0.384557	-18.1647	169.132	-21.2368	-3.82145	158.148	-4.24082	24.9243	160.869	44.7734	6.71498	163.667	52.2786	42.9199	130.006	48.3077	30.3931	
240	2	110.269	12.7429	42.9068	101.425	-20.6531	20.1538	108.357	-34.5795	-2.43181	124.496	-49.8384	-22.4792	106.698	15.8441	-42.2518	102.416	5.61572	-65.4832	99.819	-3.42092	-85.525	139.852	-6.40098	-40.155	140.029	-36.2323	-26.3093	135.686	-23.943	13.7676	160.247	-11.5005	-25.8429	155.331	-36.9539	-3.2292	149.947	-26.3789	24.7097	182.091	-9.89174	-15.6802	167.613	-26.3285	1.92696	156.218	-7.3285	24.8736	163.903	42.8238	8.81692	166.732	54.0543	44.8354	129.032	47.5157	26.0925	
241	2.00833	106.961	14.2068	42.2288	99.9915	-21.7694	22.138	107.131	-37.3944	-0.411762	126.935	-51.099	-17.8461	106.013	9.73559	-39.8788	102.81	-1.56342	-60.6403	99.8304	-14.356	-83.3674	137.148	-12.0986	-36.4683	135.758	-41.8625	-19.6311	138.773	-26.2301	15.7002	158.588	-17.668	-22.6305	153.302	-41.0636	3.08782	150.573	-26.5704	30.4556	179.461	-12.7118	-11.4684	165.424	-29.6527	8.59232	153.605	-4.98327	30.435	161.857	40.6879	7.001	162.838	51.3641	41.6979	128.327	45.8509	22.6868	
242	2.01667	104.639	16.8196	41.3307	98.8542	-17.154	25.6755	100.725	-39.629	5.02527	119.37	-53.7606	-8.44707	102.643	8.10605	-36.922	100.822	-7.28049	-58.8277	102.007	-21.231	-81.4918	135.509	-16.0106	-33.2725	129.316	-44.6719	-11.7943	133.016	-25.5766	19.2452	156.113	-20.7	-18.3488	146.426	-43.4436	7.32409	144.995	-23.1464	36.984	176.936	-17.3954	-7.63818	159.966	-32.5667	16.2636	147.31	-5.03729	32.4058	159.9	34.2157	4.3503	165.163	51.2022	39.8739	128.313	46.4269	25.3963	
243	2.025	102.025	22.3058	46.361	92.1673	-13.3313	30.0333	95.4391	-35.0056	8.25857	110.337	-56.062	-5.72938	103.218	5.07617	-41.3618	98.242	-8.66825	-57.7271	98.2372	-23.2379	-78.7032	132.134	-16.9074	-30.3611	125.824	-45.8946	-10.1011	125.794	-22.0603	22.8125	148.753	-25.752	-14.8043	138.115	-43.8154	10.2942	135.73	-25.7887	37.4035	168.311	-22.0901	-4.05546	151.455	-33.3662	18.099	143.86	-9.26681	31.7778	164.348	30.9743	3.59643	165.951	48.0323	38.0596	128.415	47.6702	22.5004	
244	2.03333	102.032	27.7275	47.3357	89.4814	-7.14036	30.4615	88.5154	-31.5374	9.70549	101.202	-53.554	-1.71119	104.452	6.594	-38.4845	98.0757	-8.27358	-58.1063	95.6482	-25.3423	-79.3935	124.645	-17.7721	-28.3816	118.079	-44.0286	-4.97462	119.05	-16.8569	24.7067	145.232	-29.5047	-12.2449	134.058	-45.9231	14.2555	129.174	-21.5673	42.0477	165.084	-27.8849	0.058479	144.294	-35.2563	20.9191	139.555	-5.05743	36.1671	161.987	31.0897	6.73264	167.93	46.0237	39.1233	129.657	47.3589	19.0103	
245	2.04167	101.544	33.3752	46.3479	84.9004	-0.836408	30.9058	82.6272	-22.6107	14.8456	93.8945	-47.5373	2.57698	102.796	10.5586	-36.1172	93.8451	-3.76663	-54.6056	93.609	-24.4669	-78.3008	121.933	-20.8258	-26.9579	109.599	-41.6061	-3.2755	112.583	-16.5132	26.2287	141	-30.6805	-9.72583	122.57	-43.4545	17.2776	124.172	-23.9957	41.518	157.453	-33.6583	4.24765	137.738	-35.4006	22.9753	132.512	-6.13676	35.5983	161.742	25.1082	4.77626	168.675	45.3607	39.315	131.422	49.105	21.7901	
246	2.05	98.4229	38.5562	42.9384	79.9088	5.31098	29.8314	77.9607	-17.1935	14.246	87.6518	-42.5539	1.16335	100.793	14.2102	-37.4072	91.2008	-0.542091	-59.5495	89.0495	-16.5931	-77.0331	114.954	-19.5655	-26.6043	102.553	-37.9883	-0.293697	107.087	-7.26157	25.244	129.416	-26.8328	-11.226	115.475	-42.0149	18.3282	118.115	-20.4605	42.6628	150.323	-30.9851	3.06121	130.622	-36.2038	21.3243	126.916	-2.92396	37.4877	163.415	24.2095	5.11904	170.161	43.3533	37.9155	131.825	52.0467	20.5997	
247	2.05833	97.6643	44.8138	40.4928	75.703	13.4132	27.2668	70.5658	-10.0871	11.053	75.6716	-37.1999	-0.822917	98.0515	21.0718	-40.1701	89.9024	4.51823	-62.0568	83.1515	-11.9118	-82.4996	108.526	-12.9527	-27.788	92.8459	-30.7228	-2.38707	101.746	-3.96396	23.0934	123.796	-29.1174	-10.697	109.179	-37.9847	16.8456	111.042	-15.2717	41.7089	143.767	-33.9677	2.90472	121.835	-32.5398	21.3514	123.105	-5.18777	38.53	161.537	23.5068	8.01086	166.741	42.4641	36.0441	133.99	53.9846	15.4837	
248	2.06667	102.161	49.6242	37.6551	76.2196	23.4494	26.1431	67.5746	-0.594819	6.69149	69.0347	-29.0856	-2.87257	100.71	24.0579	-43.7136	94.2689	9.33808	-62.8075	87.1749	-6.45828	-82.9393	107.126	-13.4071	-29.366	86.7697	-24.549	-5.27573	99.7048	0.0739583	21.5109	119.87	-23.1383	-11.7847	99.6512	-31.9815	11.6875	105.62	-9.45423	39.9851	138.465	-32.0114	2.09039	116.464	-31.0857	21.5106	119.675	-1.87823	40.49	161.885	21.729	6.18468	174.246	38.1656	36.3036	139.699	51.7297	14.8912	
249	2.075	108.856	55.7078	34.3481	77.8747	30.5821	18.6727	68.0779	9.63685	4.82022	65.8718	-20.5697	-5.84586	105.848	25.9809	-48.2573	95.4817	15.4499	-66.8983	89.7786	-0.64774	-85.5535	105.611	-9.91904	-32.0013	82.6276	-19.0469	-9.67378	99.3147	4.09688	21.5604	113.599	-22.5594	-12.3212	94.7814	-26.3304	13.8068	102.444	-4.28897	38.584	130.125	-28.9872	1.45995	111.684	-30.6529	23.425	117.684	1.4686	38.2938	161.114	21.0343	4.81963	173.919	37.0437	37.5747	148.296	52.1776	13.6194	
250	2.08333	109.697	59.4523	27.1407	77.8927	39.0083	18.2614	64.4205	17.4298	0.252858	63.6565	-9.9807	-7.50217	107.815	31.7916	-51.9848	101.95	19.3809	-68.1418	92.2764	8.04988	-88.3702	107.404	-2.60083	-33.8011	82.0447	-14.5428	-11.5638	96.5894	6.96769	18.2761	117.09	-19.8928	-13.3494	92.4001	-22.6802	10.7825	101.666	0.322564	37.1388	127.762	-28.8745	1.70835	105.271	-23.8828	22.3943	115.155	2.94463	37.6075	163.221	19.5486	6.46804	173.083	33.8464	34.9904	148.471	53.3861	9.29491	
